<svg version="1.0" xmlns="http://www.w3.org/2000/svg"
 width="339.000000pt" height="413.000000pt" viewBox="0 0 339.000000 413.000000"
 preserveAspectRatio="xMidYMid meet">

<g transform="translate(0.000000,413.000000) scale(0.100000,-0.100000)"
fill="#000000" stroke="none">
<path d="M0 2065 l0 -2065 1695 0 1695 0 0 2065 0 2065 -1695 0 -1695 0 0
-2065z m1804 1609 c10 -4 16 -18 16 -40 0 -30 3 -34 25 -34 14 0 25 5 25 11 0
6 12 9 28 7 22 -2 28 -8 30 -35 4 -40 -25 -60 -54 -38 -11 8 -27 15 -36 15
-15 0 -18 -9 -18 -60 0 -53 2 -60 19 -60 11 0 23 5 26 10 9 15 41 12 55 -5 15
-19 6 -61 -16 -69 -9 -4 -24 0 -34 9 -9 8 -24 15 -33 15 -14 0 -17 -11 -17
-60 0 -53 2 -60 20 -60 11 0 29 5 39 12 30 18 53 3 49 -33 -4 -42 -30 -59 -56
-36 -34 31 -52 22 -52 -28 0 -33 -4 -45 -14 -45 -8 0 -22 -10 -30 -22 -14 -20
-16 -93 -16 -603 l1 -580 284 -245 284 -245 -64 -3 -65 -3 0 -408 0 -408 98
-12 c131 -17 364 -65 492 -101 58 -17 89 -28 71 -25 -761 117 -1552 124 -2225
20 -88 -14 -161 -23 -163 -21 -12 12 391 104 542 123 l60 8 3 412 2 412 -66 3
-67 3 281 240 281 240 -2 600 -2 600 -22 10 c-19 8 -23 18 -23 52 0 48 -18 57
-52 26 -26 -23 -52 -6 -56 36 -4 36 19 51 49 33 10 -7 28 -12 39 -12 18 0 20
7 20 60 0 57 -1 60 -25 60 -14 0 -25 -4 -25 -9 0 -13 -27 -21 -45 -15 -21 8
-20 73 1 81 9 3 25 1 35 -5 10 -7 28 -12 39 -12 18 0 20 7 20 60 0 51 -3 60
-17 60 -10 0 -26 -7 -37 -15 -27 -21 -56 -3 -56 36 0 34 23 48 51 31 10 -7 28
-12 39 -12 16 0 20 7 20 33 0 19 3 37 7 40 8 9 316 9 337 1z"/>
<path d="M1506 3604 c-3 -9 -6 -102 -6 -209 0 -156 3 -195 15 -205 21 -18 48
-8 56 20 9 31 11 373 3 394 -4 9 -18 16 -34 16 -16 0 -30 -7 -34 -16z"/>
<path d="M1700 3405 c0 -190 2 -216 16 -222 9 -3 24 -2 33 4 14 9 16 38 19
199 3 226 2 234 -38 234 l-30 0 0 -215z"/>
<path d="M1550 2261 l0 -849 -30 -12 c-37 -15 -87 -71 -108 -119 -22 -53 -20
-147 5 -196 24 -45 63 -88 105 -113 24 -14 28 -22 28 -64 0 -36 -4 -48 -15
-48 -8 0 -15 -9 -15 -20 0 -19 7 -20 99 -20 55 0 106 3 115 6 17 7 22 34 6 34
-5 0 -10 22 -10 50 0 45 3 51 29 64 41 22 96 89 109 135 17 56 14 130 -7 177
-20 44 -82 110 -112 119 -18 6 -19 34 -19 856 0 559 -3 849 -10 849 -7 0 -10
-286 -10 -838 0 -461 -2 -841 -5 -844 -3 -3 -17 -3 -30 0 l-25 4 0 839 c0 553
-3 839 -10 839 -7 0 -10 -286 -10 -839 l0 -839 -30 -4 -30 -5 0 844 c0 555 -3
843 -10 843 -7 0 -10 -290 -10 -849z m58 -1317 c18 -5 22 -13 22 -45 0 -37 -2
-39 -30 -39 -29 0 -30 2 -30 45 0 47 1 48 38 39z m102 -39 c0 -43 -1 -45 -30
-45 -28 0 -30 2 -30 39 0 39 8 49 43 50 14 1 17 -8 17 -44z"/>
</g>
</svg>